# xmcd
#
# Track frame offsets:
#   150
#   16561
#   32174
#   50844
#   69255
#   87037
#   108765
#   125879
#   138898
#   158526
#   175164
#   190764
#   209933
#   227233
#   243064
#
# Disc length: 3419 seconds
#
# Revision: 0
# Processed by: cddbd v1.5.2PL0 Copyright (c) Steve Scherf et al.
# Submitted via: uFREEDB 1.6.0
#
DISCID=c10d590f
DTITLE=Various Artist - It's a Southern thing, yáll wouldn't understand!
DYEAR=1900
DGENRE=Country
TTITLE0=Something more - Sugarland
TTITLE1=Heads Carolina, tails California - Jo Dee Messina
TTITLE2=Speed of life - Sugarland
TTITLE3=A real fin eplace to start - Sara Evans
TTITLE4=Everyday America - Sugarland
TTITLE5=Cowboy take me away - Dixie Chicks
TTITLE6=Wild angels - Martina McBride
TTITLE7=Down in Mississippi (and up to no good) - Sugarlan
TTITLE8=Goodbye Earl - Dixie Chicks
TTITLE9=Want to - Sugarland
TTITLE10=Just wanna be mad - Terri Clark
TTITLE11=Baby Girl - Sugarland
TTITLE12=Heartbreak town - Dixie Chicks
TTITLE13=Settlin'- Sugarland
TTITLE14=Tennessee - Sugarland
EXTD=
EXTT0=
EXTT1=
EXTT2=
EXTT3=
EXTT4=
EXTT5=
EXTT6=
EXTT7=
EXTT8=
EXTT9=
EXTT10=
EXTT11=
EXTT12=
EXTT13=
EXTT14=
PLAYORDER=
